# xmcd
#
# Track frame offsets:
# 150
# 19812
# 41375
# 56737
# 75600
# 92247
# 112887
# 129347
#
# Disc length: 2035 seconds
#
#
# Revision: 2
# Processed by: cddbd v1.5.1PL0 Copyright (c) Steve Scherf et al.
# Submitted via: FreeRIP 2.942 
#
DISCID=5b07f108
DTITLE=B. B. King - Six Silver Strings
DYEAR=1985
DGENRE=Blues
TTITLE0=Six Silver Strings
TTITLE1=Big Boss Man
TTITLE2=In The Midnight Hour
TTITLE3=Into The Night
TTITLE4=My Lucille
TTITLE5=Memory Lane
TTITLE6=My Guitar Sings The Blues
TTITLE7=Double Trouble
EXTD=
EXTT0=
EXTT1=
EXTT2=
EXTT3=
EXTT4=
EXTT5=
EXTT6=
EXTT7=
PLAYORDER=
